<mxfile host="app.diagrams.net" agent="Mozilla/5.0 (Windows NT 10.0; Win64; x64; rv:109.0) Gecko/20100101 Firefox/115.0" version="24.7.17">
  <diagram name="Page-1" id="9tmHVmzgS5WHV9dcLpzu">
    <mxGraphModel dx="1195" dy="652" grid="1" gridSize="10" guides="1" tooltips="1" connect="1" arrows="1" fold="1" page="1" pageScale="1" pageWidth="827" pageHeight="1169" math="0" shadow="0">
      <root>
        <mxCell id="0" />
        <mxCell id="1" parent="0" />
        <mxCell id="7F0hAiblzPzZj3BfUaib-1" value="Joueur" style="shape=umlActor;verticalLabelPosition=bottom;verticalAlign=top;html=1;outlineConnect=0;" vertex="1" parent="1">
          <mxGeometry x="40" y="250" width="30" height="60" as="geometry" />
        </mxCell>
        <mxCell id="7F0hAiblzPzZj3BfUaib-2" value="" style="rounded=0;whiteSpace=wrap;html=1;" vertex="1" parent="1">
          <mxGeometry x="100" y="70" width="610" height="445" as="geometry" />
        </mxCell>
        <mxCell id="7F0hAiblzPzZj3BfUaib-3" value="Cliquer sur une case " style="ellipse;whiteSpace=wrap;html=1;" vertex="1" parent="1">
          <mxGeometry x="330" y="130" width="110" height="50" as="geometry" />
        </mxCell>
        <mxCell id="7F0hAiblzPzZj3BfUaib-4" value="Poser un drapeau" style="ellipse;whiteSpace=wrap;html=1;" vertex="1" parent="1">
          <mxGeometry x="330" y="260" width="110" height="50" as="geometry" />
        </mxCell>
        <mxCell id="7F0hAiblzPzZj3BfUaib-14" value="Cliquer sur une mine " style="ellipse;whiteSpace=wrap;html=1;" vertex="1" parent="1">
          <mxGeometry x="330" y="190" width="110" height="50" as="geometry" />
        </mxCell>
        <mxCell id="7F0hAiblzPzZj3BfUaib-21" style="edgeStyle=orthogonalEdgeStyle;rounded=0;orthogonalLoop=1;jettySize=auto;html=1;" edge="1" parent="1" source="7F0hAiblzPzZj3BfUaib-19" target="7F0hAiblzPzZj3BfUaib-14">
          <mxGeometry relative="1" as="geometry" />
        </mxCell>
        <mxCell id="7F0hAiblzPzZj3BfUaib-23" style="edgeStyle=orthogonalEdgeStyle;rounded=0;orthogonalLoop=1;jettySize=auto;html=1;entryX=0;entryY=0.5;entryDx=0;entryDy=0;" edge="1" parent="1" source="7F0hAiblzPzZj3BfUaib-19" target="7F0hAiblzPzZj3BfUaib-3">
          <mxGeometry relative="1" as="geometry" />
        </mxCell>
        <mxCell id="7F0hAiblzPzZj3BfUaib-24" style="edgeStyle=orthogonalEdgeStyle;rounded=0;orthogonalLoop=1;jettySize=auto;html=1;" edge="1" parent="1" source="7F0hAiblzPzZj3BfUaib-19" target="7F0hAiblzPzZj3BfUaib-4">
          <mxGeometry relative="1" as="geometry" />
        </mxCell>
        <mxCell id="7F0hAiblzPzZj3BfUaib-19" value="Choisir la difficultÃ© " style="ellipse;whiteSpace=wrap;html=1;" vertex="1" parent="1">
          <mxGeometry x="160" y="210" width="110" height="50" as="geometry" />
        </mxCell>
        <mxCell id="7F0hAiblzPzZj3BfUaib-20" style="edgeStyle=orthogonalEdgeStyle;rounded=0;orthogonalLoop=1;jettySize=auto;html=1;exitX=1;exitY=0.3333333333333333;exitDx=0;exitDy=0;exitPerimeter=0;entryX=0;entryY=0.5;entryDx=0;entryDy=0;" edge="1" parent="1" source="7F0hAiblzPzZj3BfUaib-1" target="7F0hAiblzPzZj3BfUaib-19">
          <mxGeometry relative="1" as="geometry" />
        </mxCell>
      </root>
    </mxGraphModel>
  </diagram>
</mxfile>
